<?xml version="1.0" encoding="UTF-8"?>
<svg width="128" height="128" viewBox="0 0 128 128" xmlns="http://www.w3.org/2000/svg">
  <!-- Background circle -->
  <circle cx="64" cy="64" r="60" fill="#4285f4"/>
  
  <!-- Translation symbol -->
  <g fill="white" transform="translate(24, 24) scale(0.625)">
    <path d="M12.87 15.07l-2.54-2.51.03-.03c1.74-1.94 2.98-4.17 3.71-6.53H17V4h-7V2H8v2H1v1.99h11.17C11.5 7.92 10.44 9.75 9 11.35 8.07 10.32 7.3 9.19 6.69 8h-2c.73 1.63 1.73 3.17 2.98 4.56l-5.09 5.02L4 19l5-5 3.11 3.11.76-2.04zM18.5 10h-2L12 22h2l1.12-3h4.75L21 22h2l-4.5-12zm-2.62 7l1.62-4.33L19.12 17h-3.24z"/>
  </g>
  
  <!-- Context symbol (small dots) -->
  <g fill="white" opacity="0.8">
    <circle cx="40" cy="64" r="4"/>
    <circle cx="64" cy="64" r="4"/>
    <circle cx="88" cy="64" r="4"/>
  </g>
</svg> 